<svg xmlns="http://www.w3.org/2000/svg" viewBox="0 0 64 64" width="512" height="512"><circle cx="32" cy="32" r="30" fill="#F97316"></circle><circle cx="32" cy="32" r="25" fill="#FACC15"></circle><path d="M32 9 L36 18 L32 22 L28 18 Z" fill="#DC2626" transform="rotate(0 32 32)"></path><path d="M32 9 L36 18 L32 22 L28 18 Z" fill="#DC2626" transform="rotate(30 32 32)"></path><path d="M32 9 L36 18 L32 22 L28 18 Z" fill="#DC2626" transform="rotate(60 32 32)"></path><path d="M32 9 L36 18 L32 22 L28 18 Z" fill="#DC2626" transform="rotate(90 32 32)"></path><path d="M32 9 L36 18 L32 22 L28 18 Z" fill="#DC2626" transform="rotate(120 32 32)"></path><path d="M32 9 L36 18 L32 22 L28 18 Z" fill="#DC2626" transform="rotate(150 32 32)"></path><path d="M32 9 L36 18 L32 22 L28 18 Z" fill="#DC2626" transform="rotate(180 32 32)"></path><path d="M32 9 L36 18 L32 22 L28 18 Z" fill="#DC2626" transform="rotate(210 32 32)"></path><path d="M32 9 L36 18 L32 22 L28 18 Z" fill="#DC2626" transform="rotate(240 32 32)"></path><path d="M32 9 L36 18 L32 22 L28 18 Z" fill="#DC2626" transform="rotate(270 32 32)"></path><path d="M32 9 L36 18 L32 22 L28 18 Z" fill="#DC2626" transform="rotate(300 32 32)"></path><path d="M32 9 L36 18 L32 22 L28 18 Z" fill="#DC2626" transform="rotate(330 32 32)"></path><circle cx="32" cy="32" r="13" fill="#FFFFFF"></circle><ellipse cx="32" cy="23" rx="3" ry="6" fill="#A855F7" transform="rotate(0 32 32)"></ellipse><ellipse cx="32" cy="23" rx="3" ry="6" fill="#A855F7" transform="rotate(45 32 32)"></ellipse><ellipse cx="32" cy="23" rx="3" ry="6" fill="#A855F7" transform="rotate(90 32 32)"></ellipse><ellipse cx="32" cy="23" rx="3" ry="6" fill="#A855F7" transform="rotate(135 32 32)"></ellipse><ellipse cx="32" cy="23" rx="3" ry="6" fill="#A855F7" transform="rotate(180 32 32)"></ellipse><ellipse cx="32" cy="23" rx="3" ry="6" fill="#A855F7" transform="rotate(225 32 32)"></ellipse><ellipse cx="32" cy="23" rx="3" ry="6" fill="#A855F7" transform="rotate(270 32 32)"></ellipse><ellipse cx="32" cy="23" rx="3" ry="6" fill="#A855F7" transform="rotate(315 32 32)"></ellipse><circle cx="32" cy="32" r="5" fill="#16A34A"></circle><circle cx="32" cy="32" r="2" fill="#FDE047"></circle></svg>