<svg xmlns="http://www.w3.org/2000/svg" viewBox="0 0 64 64" width="512" height="512"><path d="M44 58 C40 40 38 24 46 6" stroke="#15803D" stroke-width="2" fill="none" stroke-linecap="round"></path><path d="M46 8 C58 14 58 30 45 34 C34 31 34 15 46 8 Z" fill="#16A34A"></path><ellipse cx="45.5" cy="21" rx="7" ry="9" fill="#0EA5E9"></ellipse><ellipse cx="45.5" cy="22" rx="4.5" ry="6" fill="#1D4ED8"></ellipse><ellipse cx="45.5" cy="22.5" rx="2.3" ry="3.2" fill="#0F172A"></ellipse><path d="M38 12 l-4 -3 M37 18 l-5 -1 M37 25 l-5 1 M54 13 l4 -3 M55 20 l5 -1 M54 27 l4 2" stroke="#22C55E" stroke-width="1.3" stroke-linecap="round"></path><path d="M4 50 L50 36" stroke="#B45309" stroke-width="6" stroke-linecap="round"></path><path d="M4 50 L50 36" stroke="#D97706" stroke-width="3.5" stroke-linecap="round"></path><g fill="#78350F"><circle cx="16" cy="46.4" r="1.2"></circle><circle cx="22" cy="44.6" r="1.2"></circle><circle cx="28" cy="42.8" r="1.2"></circle><circle cx="34" cy="41" r="1.2"></circle></g><path d="M40 39 l2 6 M43 38 l2 6" stroke="#DC2626" stroke-width="1.6" stroke-linecap="round"></path><path d="M42 44 C40 50 44 54 46 56 M45 43 C45 50 49 52 51 53" stroke="#DC2626" stroke-width="1.4" fill="none" stroke-linecap="round"></path></svg>