<svg xmlns="http://www.w3.org/2000/svg" viewBox="0 0 64 64" width="512" height="512"><circle cx="30" cy="28" r="26" fill="#CCFBF1"></circle><path d="M38 8 A20 20 0 1 0 38 44 A15 15 0 1 1 38 8 Z" fill="#FACC15"></path><path d="M47 18 l2 5 5 .4 -3.9 3.2 1.3 5 -4.4-2.8 -4.4 2.8 1.3-5 -3.9-3.2 5-.4 Z" fill="#FDE68A"></path><path d="M44 34 h8 l2 4 -2 14 h-8 l-2 -14 Z" fill="#F59E0B"></path><path d="M47 30 h2 v4 h-2 Z M45 52 h6 v3 h-6 Z" fill="#B45309"></path><path d="M47 39 h2 v10 h-2 Z" fill="#FEF3C7"></path><path d="M6 58 Q18 50 30 58" stroke="#14B8A6" stroke-width="3" fill="none" stroke-linecap="round"></path></svg>